<?xml version="1.0" encoding="UTF-8"?>
<!DOCTYPE svg PUBLIC "-//W3C//DTD SVG 1.1//EN" "http://www.w3.org/Graphics/SVG/1.1/DTD/svg11.dtd">
<svg xmlns="http://www.w3.org/2000/svg" version="1.1" width="285px" height="272px" style="shape-rendering:geometricPrecision; text-rendering:geometricPrecision; image-rendering:optimizeQuality; fill-rule:evenodd; clip-rule:evenodd" xmlns:xlink="http://www.w3.org/1999/xlink">
<g><path style="opacity:0.885" fill="#000000" d="M 113.5,81.5 C 122.634,79.788 130.467,82.1213 137,88.5C 138.476,93.0759 138.81,97.7426 138,102.5C 136.431,109.54 134.264,116.373 131.5,123C 139.466,123.675 146.8,121.842 153.5,117.5C 160.007,121.081 160.007,124.914 153.5,129C 144.919,132.32 136.086,134.487 127,135.5C 119.959,156.33 115.126,177.663 112.5,199.5C 113.317,203.797 115.983,205.797 120.5,205.5C 141.48,199.012 161.814,190.846 181.5,181C 189.833,174.667 198.167,168.333 206.5,162C 207.896,159.425 209.563,156.758 211.5,154C 216.619,152.94 219.286,155.107 219.5,160.5C 218.52,164.649 216.186,167.816 212.5,170C 203.062,178.106 193.062,185.439 182.5,192C 167.833,198.333 153.167,204.667 138.5,211C 131.419,214.072 124.252,215.572 117,215.5C 107.848,213.687 103.015,208.187 102.5,199C 104.875,176.999 109.542,155.499 116.5,134.5C 108.832,132.712 101.499,133.379 94.5,136.5C 88.2963,133.337 87.963,129.503 93.5,125C 102.44,123.785 111.44,123.118 120.5,123C 125.446,113.687 127.78,103.854 127.5,93.5C 121.621,91.1142 115.621,90.9475 109.5,93C 94.4442,96.795 79.9442,101.962 66,108.5C 62.5008,108.521 60.6675,106.854 60.5,103.5C 60.4062,101.088 61.4062,99.255 63.5,98C 79.8534,91.1596 96.52,85.6596 113.5,81.5 Z"/></g>
</svg>
